<svg width="35" height="35" viewBox="0 0 35 35" fill="none" xmlns="http://www.w3.org/2000/svg">
<path d="M8.77333 6.56541C8.20285 6.56484 7.63786 6.67678 7.11069 6.89483C6.58353 7.11287 6.10454 7.43275 5.70115 7.83614C5.29775 8.23953 4.97788 8.71852 4.75983 9.24569C4.54178 9.77285 4.42984 10.3378 4.43042 10.9083C4.43042 14.1648 8.77333 18.9729 8.77333 18.9729C8.77333 18.9729 13.1163 14.1648 13.1163 10.9083C13.1168 10.3378 13.0049 9.77285 12.7868 9.24569C12.5688 8.71852 12.2489 8.23953 11.8455 7.83614C11.4421 7.43275 10.9631 7.11287 10.436 6.89483C9.90881 6.67678 9.34382 6.56484 8.77333 6.56541ZM8.77333 12.4585C8.46673 12.4585 8.16702 12.3676 7.91209 12.1973C7.65715 12.0269 7.45846 11.7848 7.34113 11.5016C7.2238 11.2183 7.1931 10.9066 7.25291 10.6059C7.31273 10.3052 7.46037 10.029 7.67717 9.81217C7.89397 9.59537 8.17019 9.44772 8.4709 9.38791C8.77162 9.32809 9.08331 9.35879 9.36657 9.47613C9.64984 9.59346 9.89195 9.79215 10.0623 10.0471C10.2326 10.302 10.3235 10.6017 10.3235 10.9083C10.3232 11.3194 10.1597 11.7134 9.86907 12.0041C9.57843 12.2947 9.18436 12.4582 8.77333 12.4585ZM30.66 16.4733V10.2025C30.6498 9.54399 30.5497 8.88997 30.3625 8.25854C29.884 6.58922 28.825 5.1457 27.3763 4.18813C25.9276 3.23056 24.1845 2.82191 22.4612 3.03583C20.7379 3.24975 19.1476 4.07217 17.977 5.35488C16.8065 6.63758 16.1325 8.29622 16.0767 10.0319V10.3935L16.0621 11.6623V26.1756H16.0563V26.2354C16.0563 27.009 15.749 27.7508 15.202 28.2978C14.655 28.8448 13.9131 29.1521 13.1396 29.1521C12.366 29.1521 11.6242 28.8448 11.0772 28.2978C10.5302 27.7508 10.2229 27.009 10.2229 26.2354C10.2229 26.2179 10.2273 26.2004 10.2288 26.1815H10.2229V23.3479H7.30625V26.2646H7.30917C7.31014 27.8109 7.92534 29.2935 9.01944 30.3862C10.1135 31.479 11.5969 32.0923 13.1432 32.0914C14.6896 32.0904 16.1722 31.4752 17.2649 30.3811C18.3576 29.287 18.971 27.8036 18.97 26.2573H18.9729V24.8252H18.9802V13.1206L18.9948 10.3935V10.0333C19.0364 8.88527 19.5277 7.79959 20.3627 7.01061C21.1977 6.22163 22.3095 5.79261 23.4581 5.81616C24.6067 5.8397 25.6999 6.31392 26.5019 7.13646C27.3039 7.95901 27.7503 9.06391 27.7448 10.2127V16.4471C27.1863 16.7631 26.7477 17.2545 26.497 17.8451C26.2463 18.4358 26.1974 19.0926 26.358 19.7139C26.5186 20.3351 26.8796 20.886 27.3852 21.2812C27.8907 21.6763 28.5125 21.8936 29.1542 21.8994C29.7958 21.9052 30.4214 21.6991 30.934 21.3131C31.4466 20.9271 31.8175 20.3828 31.9893 19.7646C32.161 19.1463 32.124 18.4887 31.8839 17.8936C31.6438 17.2986 31.2127 16.7993 30.66 16.4733Z" fill="white"/>
</svg>
