<svg width="35" height="35" viewBox="0 0 35 35" fill="none" xmlns="http://www.w3.org/2000/svg">
<g clip-path="url(#clip0_1_240)">
<path d="M22.7792 16.3625C22.5974 16.1781 22.3498 16.0735 22.0909 16.0717C21.832 16.0699 21.583 16.171 21.3986 16.3528C21.2142 16.5346 21.1097 16.7821 21.1078 17.041C21.106 17.2999 21.2071 17.549 21.3889 17.7333L25.0056 21.3889H7.6125C7.35465 21.3889 7.10736 21.4913 6.92504 21.6736C6.74271 21.856 6.64028 22.1033 6.64028 22.3611C6.64028 22.619 6.74271 22.8662 6.92504 23.0486C7.10736 23.2309 7.35465 23.3333 7.6125 23.3333H25.0056L21.3889 26.9305C21.2989 27.0212 21.2276 27.1287 21.1791 27.2469C21.1307 27.3651 21.106 27.4917 21.1064 27.6194C21.1069 27.7471 21.1325 27.8736 21.1818 27.9914C21.2311 28.1092 21.3031 28.2162 21.3937 28.3062C21.4844 28.3963 21.5919 28.4675 21.7101 28.516C21.8283 28.5645 21.9549 28.5892 22.0826 28.5887C22.2103 28.5883 22.3368 28.5627 22.4546 28.5134C22.5725 28.4641 22.6794 28.392 22.7694 28.3014L28.7097 22.3611L22.7792 16.3625Z" fill="white"/>
<path d="M12.8722 17.9375C13.0653 17.9386 13.2544 17.8822 13.4153 17.7755C13.5762 17.6687 13.7017 17.5165 13.7758 17.3381C13.8498 17.1598 13.8691 16.9634 13.8311 16.7741C13.7931 16.5847 13.6996 16.411 13.5625 16.275L9.95556 12.6389H27.3389C27.5967 12.6389 27.844 12.5365 28.0264 12.3541C28.2087 12.1718 28.3111 11.9245 28.3111 11.6667C28.3111 11.4088 28.2087 11.1615 28.0264 10.9792C27.844 10.7969 27.5967 10.6944 27.3389 10.6944H9.95556L13.5625 7.06805C13.6525 6.9774 13.7238 6.86991 13.7723 6.75172C13.8207 6.63353 13.8454 6.50694 13.845 6.3792C13.8445 6.25145 13.8189 6.12505 13.7696 6.0072C13.7203 5.88935 13.6483 5.78237 13.5576 5.69236C13.467 5.60235 13.3595 5.53107 13.2413 5.4826C13.1231 5.43414 12.9965 5.40942 12.8688 5.40987C12.6108 5.41078 12.3637 5.51415 12.1819 5.69722L6.24167 11.6667L12.1819 17.6361C12.2712 17.7297 12.3782 17.8046 12.4967 17.8564C12.6152 17.9081 12.7429 17.9357 12.8722 17.9375Z" fill="white"/>
</g>
<defs>
<clipPath id="clip0_1_240">
<rect width="35" height="35" fill="white"/>
</clipPath>
</defs>
</svg>
